# xmcd
#
# Track frame offsets: 
#        150
#        24312
#        45714
#        64144
#        85640
#        102824
#        120490
#        138931
#        157654
#        174661
#
# Disc length: 2581 seconds
#
# Revision: 0
# Processed by: cddbd v1.5.2PL0 Copyright (c) Steve Scherf et al.
# Submitted via: ExactAudioCopy v1.3
#
DISCID=6f0a130a
DTITLE=Iron Horse - Life, Birth, Blue, Grass: The Bluegrass Tribute To
DTITLE=Black Label Society
DYEAR=2006
DGENRE=Bluegrass
TTITLE0=Losin' Your Mind
TTITLE1=Dirt On The Grave
TTITLE2=Between Heaven And Hell
TTITLE3=Love Reign Down
TTITLE4=Yesterday, Today And Tomorrow
TTITLE5=In This River
TTITLE6=Bleed For Me
TTITLE7=Beneath The Tree
TTITLE8=Lost Heaven
TTITLE9=Blackened Waters
EXTD=
EXTT0=
EXTT1=
EXTT2=
EXTT3=
EXTT4=
EXTT5=
EXTT6=
EXTT7=
EXTT8=
EXTT9=
PLAYORDER=
